<svg width="48" height="48" viewBox="0 0 48 48" fill="none" xmlns="http://www.w3.org/2000/svg">
<path d="M3 18.2C3 12.8795 3 10.2193 4.03544 8.18709C4.94624 6.39955 6.39955 4.94624 8.18709 4.03544C10.2193 3 12.8795 3 18.2 3H29.8C35.1205 3 37.7807 3 39.8129 4.03544C41.6004 4.94624 43.0538 6.39955 43.9646 8.18709C45 10.2193 45 12.8795 45 18.2V29.8C45 35.1205 45 37.7807 43.9646 39.8129C43.0538 41.6004 41.6004 43.0538 39.8129 43.9646C37.7807 45 35.1205 45 29.8 45H18.2C12.8795 45 10.2193 45 8.18709 43.9646C6.39955 43.0538 4.94624 41.6004 4.03544 39.8129C3 37.7807 3 35.1205 3 29.8V18.2Z" fill="#330000"/>
<path d="M23.3525 29.3944H16.8441L15.5199 33.6134C15.4831 33.7702 15.3387 33.8812 15.1817 33.8735H11.8853C11.6973 33.8735 11.6315 33.7676 11.688 33.5556L17.323 16.9107C17.3794 16.7374 17.4358 16.5399 17.4921 16.3183C17.5658 15.9328 17.6035 15.5409 17.6048 15.148C17.5887 15.0319 17.6907 14.9294 17.802 14.9457H22.2818C22.413 14.9457 22.4882 14.9939 22.5072 15.0902L28.903 33.5845C28.9593 33.7773 28.9029 33.8737 28.7339 33.8735H25.0711C24.9426 33.8881 24.82 33.8 24.7894 33.6712L23.3525 29.3944ZM17.8583 25.7533H22.31C21.5786 23.2541 20.7532 20.7876 20.0842 18.2689C19.3624 20.7919 18.5749 23.3047 17.8583 25.7533Z" fill="#FF9A00"/>
<path d="M32.7063 18.0087C32.4189 18.0206 32.1323 17.9701 31.8653 17.8605C31.5982 17.751 31.3568 17.5848 31.1566 17.373C30.957 17.152 30.802 16.8927 30.7005 16.61C30.5989 16.3273 30.5528 16.0268 30.5649 15.7258C30.5547 15.4278 30.6058 15.1309 30.7151 14.8546C30.8243 14.5782 30.9892 14.3286 31.1988 14.122C31.4065 13.9176 31.6516 13.7574 31.92 13.6508C32.1884 13.5441 32.4748 13.4931 32.7626 13.5007C33.4388 13.5007 33.9694 13.7078 34.3545 14.122C34.5488 14.3373 34.6999 14.5897 34.799 14.8649C34.8981 15.1401 34.9433 15.4327 34.932 15.7258C34.9438 16.028 34.8963 16.3295 34.7922 16.6125C34.6881 16.8954 34.5297 17.1541 34.3263 17.373C34.1137 17.5879 33.86 17.7554 33.5812 17.8648C33.3023 17.9742 33.0044 18.0232 32.7063 18.0087ZM30.7621 33.5844V19.7714C30.7621 19.5981 30.837 19.5114 30.9875 19.5114H34.4531C34.6032 19.5114 34.6784 19.5981 34.6785 19.7714V33.5844C34.6785 33.7772 34.6034 33.8736 34.4531 33.8734H31.0157C30.8467 33.8734 30.7622 33.7771 30.7621 33.5844Z" fill="#FF9A00"/>
</svg>
