<svg width="48" height="48" viewBox="0 0 48 48" fill="none" xmlns="http://www.w3.org/2000/svg">
<path d="M3 18.2C3 12.8795 3 10.2193 4.03544 8.18709C4.94624 6.39955 6.39955 4.94624 8.18709 4.03544C10.2193 3 12.8795 3 18.2 3H29.8C35.1205 3 37.7807 3 39.8129 4.03544C41.6004 4.94624 43.0538 6.39955 43.9646 8.18709C45 10.2193 45 12.8795 45 18.2V29.8C45 35.1205 45 37.7807 43.9646 39.8129C43.0538 41.6004 41.6004 43.0538 39.8129 43.9646C37.7807 45 35.1205 45 29.8 45H18.2C12.8795 45 10.2193 45 8.18709 43.9646C6.39955 43.0538 4.94624 41.6004 4.03544 39.8129C3 37.7807 3 35.1205 3 29.8V18.2Z" fill="#111111"/>
<path fill-rule="evenodd" clip-rule="evenodd" d="M24 24C24 20.9624 26.4624 18.5 29.5 18.5C32.5376 18.5 35 20.9624 35 24C35 27.0376 32.5376 29.5 29.5 29.5C26.4624 29.5 24 27.0376 24 24Z" fill="#1ABCFE"/>
<path fill-rule="evenodd" clip-rule="evenodd" d="M13 35C13 31.9624 15.4624 29.5 18.5 29.5H24V35C24 38.0376 21.5376 40.5 18.5 40.5C15.4624 40.5 13 38.0376 13 35Z" fill="#0ACF83"/>
<path fill-rule="evenodd" clip-rule="evenodd" d="M24 7.5V18.5H29.5C32.5376 18.5 35 16.0376 35 13C35 9.96243 32.5376 7.5 29.5 7.5H24Z" fill="#FF7262"/>
<path fill-rule="evenodd" clip-rule="evenodd" d="M13 13C13 16.0376 15.4624 18.5 18.5 18.5H24V7.5H18.5C15.4624 7.5 13 9.96243 13 13Z" fill="#F24E1E"/>
<path fill-rule="evenodd" clip-rule="evenodd" d="M13 24C13 27.0376 15.4624 29.5 18.5 29.5H24V18.5H18.5C15.4624 18.5 13 20.9624 13 24Z" fill="#A259FF"/>
</svg>
