<svg width="48" height="48" viewBox="0 0 48 48" fill="none" xmlns="http://www.w3.org/2000/svg">
<path d="M3 18.2C3 12.8795 3 10.2193 4.03544 8.18709C4.94624 6.39955 6.39955 4.94624 8.18709 4.03544C10.2193 3 12.8795 3 18.2 3H29.8C35.1205 3 37.7807 3 39.8129 4.03544C41.6004 4.94624 43.0538 6.39955 43.9646 8.18709C45 10.2193 45 12.8795 45 18.2V29.8C45 35.1205 45 37.7807 43.9646 39.8129C43.0538 41.6004 41.6004 43.0538 39.8129 43.9646C37.7807 45 35.1205 45 29.8 45H18.2C12.8795 45 10.2193 45 8.18709 43.9646C6.39955 43.0538 4.94624 41.6004 4.03544 39.8129C3 37.7807 3 35.1205 3 29.8V18.2Z" fill="#282C35"/>
<path d="M27.2147 23.9703C27.2147 22.2049 25.7755 20.7736 24 20.7736C22.2247 20.7736 20.7853 22.2049 20.7853 23.9703C20.7853 25.736 22.2247 27.1673 24 27.1673C25.7755 27.1673 27.2147 25.736 27.2147 23.9703Z" fill="#53C1DE"/>
<path fill-rule="evenodd" clip-rule="evenodd" d="M34.4404 18.0353C35.1193 15.292 35.9727 10.2049 32.9645 8.4802C29.9704 6.76301 26.0741 10.0534 24.0167 12.0285C21.9653 10.0731 17.9596 6.79676 14.954 8.52694C11.961 10.2499 12.884 15.2527 13.5779 18.0131C10.786 18.8017 6 20.5002 6 23.9703C6 27.4307 10.781 29.2785 13.5564 30.0663C12.8599 32.8421 11.9832 37.7735 14.9799 39.4925C17.9967 41.2224 21.99 38.024 24.0664 36.0273C26.137 38.014 29.9959 41.2333 32.9906 39.5094C35.9948 37.7801 35.2123 32.7611 34.5183 29.9846C37.2087 29.1951 42 27.3875 42 23.9703C42 20.5335 37.1884 18.8213 34.4404 18.0353ZM34.0995 28.5132C33.6438 27.0789 33.0288 25.5536 32.2765 23.9779C32.9946 22.4395 33.5857 20.9339 34.0286 19.5088C36.0431 20.0896 40.4622 21.417 40.4622 23.9703C40.4622 26.5476 36.2216 27.8876 34.0995 28.5132ZM32.22 38.1859C29.9857 39.472 26.6666 36.3934 25.1374 34.9303C26.1518 33.827 27.1656 32.5443 28.155 31.1199C29.8954 30.9664 31.5396 30.7153 33.0308 30.3726C33.5192 32.3365 34.4643 36.8939 32.22 38.1859ZM15.7483 38.1675C13.5137 36.8862 14.5351 32.4857 15.0475 30.441C16.522 30.7654 18.1543 30.9987 19.8989 31.1394C20.8948 32.5332 21.9379 33.8143 22.9891 34.9362C21.6903 36.1856 17.9934 39.4548 15.7483 38.1675ZM7.53779 23.9703C7.53779 21.3833 11.9305 20.0656 13.9908 19.4863C14.4414 20.9434 15.0323 22.4669 15.7455 24.0076C15.0231 25.5712 14.4237 27.1189 13.969 28.5932C12.0044 28.034 7.53779 26.5589 7.53779 23.9703ZM15.7244 9.85051C17.9682 8.55897 21.4497 11.7044 22.9391 13.1202C21.8933 14.237 20.8597 15.5084 19.8724 16.8941C18.1793 17.0502 16.5585 17.3008 15.0685 17.6365C14.5095 15.4101 13.4831 11.1407 15.7244 9.85051ZM29.2551 18.5564C30.4038 18.7006 31.5043 18.8923 32.5376 19.127C32.2274 20.1158 31.8408 21.1497 31.3854 22.2096C30.7253 20.964 30.0167 19.7435 29.2551 18.5564ZM24.0172 14.2131C24.7265 14.9772 25.4369 15.8305 26.1357 16.7563C24.7182 16.6897 23.2984 16.6893 21.8808 16.7553C22.5803 15.8381 23.2967 14.9861 24.0172 14.2131ZM16.6278 22.2085C16.1799 21.1522 15.7968 20.1137 15.4839 19.1108C16.511 18.8822 17.6064 18.6954 18.7476 18.5536C17.9839 19.738 17.2765 20.9581 16.6278 22.2085ZM18.7804 29.4963C17.6014 29.3654 16.4895 29.1881 15.4627 28.9658C15.7805 27.9452 16.1721 26.8843 16.6296 25.8054C17.2872 27.0687 18.0054 28.3006 18.7804 29.4963ZM24.0597 33.8357C23.3308 33.0535 22.6039 32.1884 21.8938 31.2579C23.3194 31.3136 24.7478 31.3138 26.1732 31.2505C25.4721 32.1979 24.7643 33.0643 24.0597 33.8357ZM31.4001 25.7504C31.8812 26.841 32.2869 27.8962 32.609 28.8996C31.5651 29.1365 30.4382 29.3272 29.2508 29.4689C30.018 28.2594 30.7378 27.0198 31.4001 25.7504ZM27.2967 29.6542C25.1162 29.8092 22.9219 29.8075 20.7406 29.6669C19.5011 27.8664 18.3977 25.9729 17.4453 24.0071C18.3931 22.0454 19.4884 20.1556 20.7221 18.3579C22.9051 18.1938 25.1014 18.1934 27.2843 18.3589C28.5073 20.1565 29.601 22.0413 30.5708 23.9854C29.6125 25.9462 28.5114 27.8397 27.2967 29.6542ZM32.1964 9.80504C34.4407 11.0924 33.4417 15.6643 32.9514 17.6524C31.4579 17.3097 29.836 17.0546 28.1379 16.8962C27.1487 15.4954 26.1238 14.2218 25.0949 13.1194C26.6034 11.6731 29.9737 8.53032 32.1964 9.80504Z" fill="#53C1DE"/>
</svg>
